name Walk2.mot
datacolumns 19
datarows 30
range 0.91100000 0.94000000
endheader

                time	   L_ground_force_vx	   L_ground_force_vy	   L_ground_force_vz	   L_ground_force_px	   L_ground_force_py	   L_ground_force_pz	   R_ground_force_vx	   R_ground_force_vy	   R_ground_force_vz	   R_ground_force_px	   R_ground_force_py	   R_ground_force_pz	   L_ground_torque_x	   L_ground_torque_y	   L_ground_torque_z	   R_ground_torque_x	   R_ground_torque_y	   R_ground_torque_z	
          0.91100000	          0.00000000	          0.00000000	          0.00000000	          0.00000000	          0.00000000	          0.00000000	          0.00000000	          0.00000000	          0.00000000	          0.00000000	          0.00000000	          0.00000000	          0.00000000	          0.00000000	          0.00000000	          0.00000000	          0.00000000	          0.00000000	
          0.91200000	          0.00000000	          0.00000000	          0.00000000	          0.00000000	          0.00000000	          0.00000000	          0.00000000	          0.00000000	          0.00000000	          0.00000000	          0.00000000	          0.00000000	          0.00000000	          0.00000000	          0.00000000	          0.00000000	          0.00000000	          0.00000000	
          0.91300000	          0.00000000	          0.00000000	          0.00000000	          0.00000000	          0.00000000	          0.00000000	          0.00000000	          0.00000000	          0.00000000	          0.00000000	          0.00000000	          0.00000000	          0.00000000	          0.00000000	          0.00000000	          0.00000000	          0.00000000	          0.00000000	
          0.91400000	          0.00000000	          0.00000000	          0.00000000	          0.00000000	          0.00000000	          0.00000000	          0.00000000	          0.00000000	          0.00000000	          0.00000000	          0.00000000	          0.00000000	          0.00000000	          0.00000000	          0.00000000	          0.00000000	          0.00000000	          0.00000000	
          0.91500000	          0.00000000	          0.00000000	          0.00000000	          0.00000000	          0.00000000	          0.00000000	          0.00000000	          0.00000000	          0.00000000	          0.00000000	          0.00000000	          0.00000000	          0.00000000	          0.00000000	          0.00000000	          0.00000000	          0.00000000	          0.00000000	
          0.91600000	          0.00000000	          0.00000000	          0.00000000	          0.00000000	          0.00000000	          0.00000000	          0.00000000	          0.00000000	          0.00000000	          0.00000000	          0.00000000	          0.00000000	          0.00000000	          0.00000000	          0.00000000	          0.00000000	          0.00000000	          0.00000000	
          0.91700000	          0.00000000	          0.00000000	          0.00000000	          0.00000000	          0.00000000	          0.00000000	          0.00000000	          0.00000000	          0.00000000	          0.00000000	          0.00000000	          0.00000000	          0.00000000	          0.00000000	          0.00000000	          0.00000000	          0.00000000	          0.00000000	
          0.91800000	          0.00000000	          0.00000000	          0.00000000	          0.00000000	          0.00000000	          0.00000000	         -4.43949991	         12.97445743	         -0.26114811	         -0.26661422	          0.00000000	          0.00664491	          0.00000000	          0.00000000	          0.00000000	          0.00000000	          0.22113913	          0.00000000	
          0.91900000	          0.00000000	          0.00000000	          0.00000000	          0.00000000	          0.00000000	          0.00000000	         -7.11591727	         29.68879907	         -0.44297884	         -0.27741045	          0.00000000	         -0.00460406	          0.00000000	          0.00000000	          0.00000000	          0.00000000	          0.24620751	          0.00000000	
          0.92000000	          0.00000000	          0.00000000	          0.00000000	          0.00000000	          0.00000000	          0.00000000	        -10.57575157	         55.77330643	         -0.72680702	         -0.28245625	          0.00000000	         -0.01079074	          0.00000000	          0.00000000	          0.00000000	          0.00000000	          0.26746606	          0.00000000	
          0.92100000	          0.00000000	          0.00000000	          0.00000000	          0.00000000	          0.00000000	          0.00000000	        -15.08147309	         93.46126583	         -1.16510129	         -0.28505750	          0.00000000	         -0.01461278	          0.00000000	          0.00000000	          0.00000000	          0.00000000	          0.28817240	          0.00000000	
          0.92200000	          0.00000000	          0.00000000	          0.00000000	          0.00000000	          0.00000000	          0.00000000	        -20.63166526	        143.38522464	         -1.85514949	         -0.28633171	          0.00000000	         -0.01691252	          0.00000000	          0.00000000	          0.00000000	          0.00000000	          0.31467782	          0.00000000	
          0.92300000	          0.00000000	          0.00000000	          0.00000000	          0.00000000	          0.00000000	          0.00000000	        -26.75132718	        203.12502153	         -2.99087500	         -0.28684439	          0.00000000	         -0.01826586	          0.00000000	          0.00000000	          0.00000000	          0.00000000	          0.35964167	          0.00000000	
          0.92400000	          0.00000000	          0.00000000	          0.00000000	          0.00000000	          0.00000000	          0.00000000	        -32.63705894	        266.78209126	         -4.81060024	         -0.28694707	          0.00000000	         -0.01906117	          0.00000000	          0.00000000	          0.00000000	          0.00000000	          0.44020548	          0.00000000	
          0.92500000	          0.00000000	          0.00000000	          0.00000000	          0.00000000	          0.00000000	          0.00000000	        -37.52454472	        326.37208533	         -7.46857263	         -0.28686132	          0.00000000	         -0.01948081	          0.00000000	          0.00000000	          0.00000000	          0.00000000	          0.56209759	          0.00000000	
          0.92600000	          0.00000000	          0.00000000	          0.00000000	          0.00000000	          0.00000000	          0.00000000	        -40.98776153	        374.62866297	        -10.95339203	         -0.28669947	          0.00000000	         -0.01960652	          0.00000000	          0.00000000	          0.00000000	          0.00000000	          0.70644882	          0.00000000	
          0.92700000	          0.00000000	          0.00000000	          0.00000000	          0.00000000	          0.00000000	          0.00000000	        -42.98863416	        407.52703584	        -15.08580592	         -0.28649648	          0.00000000	         -0.01951213	          0.00000000	          0.00000000	          0.00000000	          0.00000000	          0.83437442	          0.00000000	
          0.92800000	          0.00000000	          0.00000000	          0.00000000	          0.00000000	          0.00000000	          0.00000000	        -43.74471925	        425.15746657	        -19.58462161	         -0.28624611	          0.00000000	         -0.01926476	          0.00000000	          0.00000000	          0.00000000	          0.00000000	          0.90500139	          0.00000000	
          0.92900000	          0.00000000	          0.00000000	          0.00000000	          0.00000000	          0.00000000	          0.00000000	        -43.58653493	        430.89741795	        -24.17630305	         -0.28592551	          0.00000000	         -0.01891797	          0.00000000	          0.00000000	          0.00000000	          0.00000000	          0.89692653	          0.00000000	
          0.93000000	          0.00000000	          0.00000000	          0.00000000	          0.00000000	          0.00000000	          0.00000000	        -42.88573931	        429.69674301	        -28.66438924	         -0.28551302	          0.00000000	         -0.01853763	          0.00000000	          0.00000000	          0.00000000	          0.00000000	          0.82242084	          0.00000000	
          0.93100000	          0.00000000	          0.00000000	          0.00000000	          0.00000000	          0.00000000	          0.00000000	        -42.01489342	        426.43453662	        -32.90980584	         -0.28500781	          0.00000000	         -0.01819375	          0.00000000	          0.00000000	          0.00000000	          0.00000000	          0.71985395	          0.00000000	
          0.93200000	          0.00000000	          0.00000000	          0.00000000	          0.00000000	          0.00000000	          0.00000000	        -41.29358372	        424.88058760	        -36.78985075	         -0.28444470	          0.00000000	         -0.01791484	          0.00000000	          0.00000000	          0.00000000	          0.00000000	          0.62935211	          0.00000000	
          0.93300000	          0.00000000	          0.00000000	          0.00000000	          0.00000000	          0.00000000	          0.00000000	        -40.95379274	        427.25243881	        -40.20301961	         -0.28388170	          0.00000000	         -0.01768935	          0.00000000	          0.00000000	          0.00000000	          0.00000000	          0.57825877	          0.00000000	
          0.93400000	          0.00000000	          0.00000000	          0.00000000	          0.00000000	          0.00000000	          0.00000000	        -41.15643835	        434.21721119	        -43.08437245	         -0.28336696	          0.00000000	         -0.01752754	          0.00000000	          0.00000000	          0.00000000	          0.00000000	          0.58293007	          0.00000000	
          0.93500000	          0.00000000	          0.00000000	          0.00000000	          0.00000000	          0.00000000	          0.00000000	        -42.01217615	        445.24410746	        -45.38519580	         -0.28292293	          0.00000000	         -0.01747910	          0.00000000	          0.00000000	          0.00000000	          0.00000000	          0.64752204	          0.00000000	
          0.93600000	          0.00000000	          0.00000000	          0.00000000	          0.00000000	          0.00000000	          0.00000000	        -43.56038312	        459.11440854	        -47.05666910	         -0.28255261	          0.00000000	         -0.01755967	          0.00000000	          0.00000000	          0.00000000	          0.00000000	          0.75686926	          0.00000000	
          0.93700000	          0.00000000	          0.00000000	          0.00000000	          0.00000000	          0.00000000	          0.00000000	        -45.74306273	        474.35176115	        -48.07941184	         -0.28224052	          0.00000000	         -0.01770892	          0.00000000	          0.00000000	          0.00000000	          0.00000000	          0.88101807	          0.00000000	
          0.93800000	          0.00000000	          0.00000000	          0.00000000	          0.00000000	          0.00000000	          0.00000000	        -48.42479003	        489.50051284	        -48.49513082	         -0.28194776	          0.00000000	         -0.01784521	          0.00000000	          0.00000000	          0.00000000	          0.00000000	          0.99146109	          0.00000000	
          0.93900000	          0.00000000	          0.00000000	          0.00000000	          0.00000000	          0.00000000	          0.00000000	        -51.44041882	        503.31188913	        -48.39434932	         -0.28162307	          0.00000000	         -0.01792048	          0.00000000	          0.00000000	          0.00000000	          0.00000000	          1.07250006	          0.00000000	
          0.94000000	          0.00000000	          0.00000000	          0.00000000	          0.00000000	          0.00000000	          0.00000000	        -54.63083875	        514.87177691	        -47.88085535	         -0.28122884	          0.00000000	         -0.01793176	          0.00000000	          0.00000000	          0.00000000	          0.00000000	          1.12239610	          0.00000000	
